REM DIRINDEX 1\2,1\3,1\4,1\5\6,1\5\7,1\8
REM DIRNAME cjc115,folder01,folder02,folder03,folder04,folder05,folder06,folder07
TITLE ""
FILE "087 Åy087ÅzUnit5 (0985 workplace_0996 complimentary).mp3" MP3
  TRACK 01 AUDIO
    TITLE "0:"
    INDEX 01 00:00:00
  TRACK 02 AUDIO
    TITLE "2:cjc115_3396"
    INDEX 01 00:00:07
  TRACK 03 AUDIO
    TITLE "0:"
    INDEX 01 00:01:36
  TRACK 04 AUDIO
    TITLE "3:cjc115_3397"
    INDEX 01 00:01:44
  TRACK 05 AUDIO
    TITLE "0:"
    INDEX 01 00:02:53
  TRACK 06 AUDIO
    TITLE "4:cjc115_3398"
    INDEX 01 00:02:61
  TRACK 07 AUDIO
    TITLE "0:"
    INDEX 01 00:06:61
  TRACK 08 AUDIO
    TITLE "2:cjc115_3399"
    INDEX 01 00:07:70
  TRACK 09 AUDIO
    TITLE "0:"
    INDEX 01 00:09:20
  TRACK 10 AUDIO
    TITLE "3:cjc115_3400"
    INDEX 01 00:09:26
  TRACK 11 AUDIO
    TITLE "0:"
    INDEX 01 00:10:49
  TRACK 12 AUDIO
    TITLE "4:cjc115_3401"
    INDEX 01 00:10:63
  TRACK 13 AUDIO
    TITLE "0:"
    INDEX 01 00:15:48
  TRACK 14 AUDIO
    TITLE "2:cjc115_3402"
    INDEX 01 00:16:57
  TRACK 15 AUDIO
    TITLE "0:"
    INDEX 01 00:17:74
  TRACK 16 AUDIO
    TITLE "3:cjc115_3403"
    INDEX 01 00:18:03
  TRACK 17 AUDIO
    TITLE "0:"
    INDEX 01 00:19:40
  TRACK 18 AUDIO
    TITLE "4:cjc115_3404"
    INDEX 01 00:19:48
  TRACK 19 AUDIO
    TITLE "0:"
    INDEX 01 00:22:48
  TRACK 20 AUDIO
    TITLE "2:cjc115_3405"
    INDEX 01 00:23:57
  TRACK 21 AUDIO
    TITLE "0:"
    INDEX 01 00:24:72
  TRACK 22 AUDIO
    TITLE "3:cjc115_3406"
    INDEX 01 00:25:05
  TRACK 23 AUDIO
    TITLE "0:"
    INDEX 01 00:27:12
  TRACK 24 AUDIO
    TITLE "4:cjc115_3407"
    INDEX 01 00:27:18
  TRACK 25 AUDIO
    TITLE "0:"
    INDEX 01 00:31:55
  TRACK 26 AUDIO
    TITLE "2:cjc115_3408"
    INDEX 01 00:32:62
  TRACK 27 AUDIO
    TITLE "0:"
    INDEX 01 00:33:69
  TRACK 28 AUDIO
    TITLE "3:cjc115_3409"
    INDEX 01 00:34:02
  TRACK 29 AUDIO
    TITLE "0:"
    INDEX 01 00:36:09
  TRACK 30 AUDIO
    TITLE "4:cjc115_3410"
    INDEX 01 00:36:17
  TRACK 31 AUDIO
    TITLE "0:"
    INDEX 01 00:38:57
  TRACK 32 AUDIO
    TITLE "2:cjc115_3411"
    INDEX 01 00:39:66
  TRACK 33 AUDIO
    TITLE "0:"
    INDEX 01 00:41:06
  TRACK 34 AUDIO
    TITLE "3:cjc115_3412"
    INDEX 01 00:41:08
  TRACK 35 AUDIO
    TITLE "0:"
    INDEX 01 00:42:23
  TRACK 36 AUDIO
    TITLE "4:cjc115_3413"
    INDEX 01 00:42:29
  TRACK 37 AUDIO
    TITLE "0:"
    INDEX 01 00:45:16
  TRACK 38 AUDIO
    TITLE "2:cjc115_3414"
    INDEX 01 00:46:25
  TRACK 39 AUDIO
    TITLE "0:"
    INDEX 01 00:47:52
  TRACK 40 AUDIO
    TITLE "3:cjc115_3415"
    INDEX 01 00:47:60
  TRACK 41 AUDIO
    TITLE "0:"
    INDEX 01 00:49:69
  TRACK 42 AUDIO
    TITLE "4:cjc115_3416"
    INDEX 01 00:49:72
  TRACK 43 AUDIO
    TITLE "0:"
    INDEX 01 00:54:64
  TRACK 44 AUDIO
    TITLE "2:cjc115_3417"
    INDEX 01 00:55:69
  TRACK 45 AUDIO
    TITLE "0:"
    INDEX 01 00:57:09
  TRACK 46 AUDIO
    TITLE "3:cjc115_3418"
    INDEX 01 00:57:17
  TRACK 47 AUDIO
    TITLE "0:"
    INDEX 01 00:59:43
  TRACK 48 AUDIO
    TITLE "4:cjc115_3419"
    INDEX 01 00:59:51
  TRACK 49 AUDIO
    TITLE "0:"
    INDEX 01 01:03:57
  TRACK 50 AUDIO
    TITLE "2:cjc115_3420"
    INDEX 01 01:04:68
  TRACK 51 AUDIO
    TITLE "0:"
    INDEX 01 01:06:14
  TRACK 52 AUDIO
    TITLE "3:cjc115_3421"
    INDEX 01 01:06:22
  TRACK 53 AUDIO
    TITLE "0:"
    INDEX 01 01:08:25
  TRACK 54 AUDIO
    TITLE "4:cjc115_3422"
    INDEX 01 01:08:35
  TRACK 55 AUDIO
    TITLE "0:"
    INDEX 01 01:11:52
  TRACK 56 AUDIO
    TITLE "2:cjc115_3423"
    INDEX 01 01:12:58
  TRACK 57 AUDIO
    TITLE "0:"
    INDEX 01 01:13:73
  TRACK 58 AUDIO
    TITLE "3:cjc115_3424"
    INDEX 01 01:14:04
  TRACK 59 AUDIO
    TITLE "0:"
    INDEX 01 01:16:07
  TRACK 60 AUDIO
    TITLE "4:cjc115_3425"
    INDEX 01 01:16:14
  TRACK 61 AUDIO
    TITLE "0:"
    INDEX 01 01:19:58
  TRACK 62 AUDIO
    TITLE "2:cjc115_3426"
    INDEX 01 01:20:65
  TRACK 63 AUDIO
    TITLE "0:"
    INDEX 01 01:22:15
  TRACK 64 AUDIO
    TITLE "3:cjc115_3427"
    INDEX 01 01:22:23
  TRACK 65 AUDIO
    TITLE "0:"
    INDEX 01 01:23:38
  TRACK 66 AUDIO
    TITLE "4:cjc115_3428"
    INDEX 01 01:23:40
  TRACK 67 AUDIO
    TITLE "0:"
    INDEX 01 01:27:73
  TRACK 68 AUDIO
    TITLE "2:cjc115_3429"
    INDEX 01 01:29:07
  TRACK 69 AUDIO
    TITLE "0:"
    INDEX 01 01:30:38
  TRACK 70 AUDIO
    TITLE "3:cjc115_3430"
    INDEX 01 01:30:48
  TRACK 71 AUDIO
    TITLE "0:"
    INDEX 01 01:31:61
  TRACK 72 AUDIO
    TITLE "4:cjc115_3431"
    INDEX 01 01:31:69
  TRACK 73 AUDIO
    TITLE "0:"
    INDEX 01 01:35:49
